<svg width="68" height="68" viewBox="0 0 68 68" fill="none" xmlns="http://www.w3.org/2000/svg">
<g opacity="0.5" filter="url(#filter0_f_38_22376)">
<circle cx="34" cy="34" r="16" transform="rotate(90 34 34)" fill="#B2FF51"/>
</g>
<g opacity="0.5" filter="url(#filter1_f_38_22376)">
<path d="M34 53.5C23.2304 53.5 14.5 44.7696 14.5 34C14.5 23.2305 23.2304 14.5 34 14.5C44.7696 14.5 53.5 23.2304 53.5 34C53.5 44.7696 44.7696 53.5 34 53.5Z" stroke="#B2FF51"/>
</g>
<path fill-rule="evenodd" clip-rule="evenodd" d="M50 34C50 42.8366 42.8366 50 34 50C25.1634 50 18 42.8366 18 34C18 25.1634 25.1634 18 34 18C42.8366 18 50 25.1634 50 34ZM29.0259 33.6876C28.6354 33.2971 28.6354 32.6639 29.0259 32.2734C29.4165 31.8829 30.0496 31.8829 30.4401 32.2734L34.0071 35.8404L37.5741 32.2734C37.9646 31.8829 38.5978 31.8829 38.9883 32.2734C39.3788 32.6639 39.3788 33.2971 38.9883 33.6876L35.217 37.4588C34.5488 38.1271 33.4654 38.1271 32.7972 37.4588L29.0259 33.6876Z" fill="white"/>
<defs>
<filter id="filter0_f_38_22376" x="0.9" y="0.9" width="66.2" height="66.2" filterUnits="userSpaceOnUse" color-interpolation-filters="sRGB">
<feFlood flood-opacity="0" result="BackgroundImageFix"/>
<feBlend mode="normal" in="SourceGraphic" in2="BackgroundImageFix" result="shape"/>
<feGaussianBlur stdDeviation="8.55" result="effect1_foregroundBlur_38_22376"/>
</filter>
<filter id="filter1_f_38_22376" x="12.2" y="12.2" width="43.6" height="43.6" filterUnits="userSpaceOnUse" color-interpolation-filters="sRGB">
<feFlood flood-opacity="0" result="BackgroundImageFix"/>
<feBlend mode="normal" in="SourceGraphic" in2="BackgroundImageFix" result="shape"/>
<feGaussianBlur stdDeviation="0.9" result="effect1_foregroundBlur_38_22376"/>
</filter>
</defs>
</svg>
