<svg width="62" height="16" viewBox="0 0 62 16" fill="none" xmlns="http://www.w3.org/2000/svg">
<path d="M1 7C0.447715 7 0 7.44772 0 8C0 8.55228 0.447715 9 1 9V7ZM61.7071 8.70711C62.0976 8.31658 62.0976 7.68342 61.7071 7.29289L55.3431 0.928932C54.9526 0.538408 54.3195 0.538408 53.9289 0.928932C53.5384 1.31946 53.5384 1.95262 53.9289 2.34315L59.5858 8L53.9289 13.6569C53.5384 14.0474 53.5384 14.6805 53.9289 15.0711C54.3195 15.4616 54.9526 15.4616 55.3431 15.0711L61.7071 8.70711ZM1 9H61V7H1V9Z" fill="url(#paint0_linear_84_18980)"/>
<defs>
<linearGradient id="paint0_linear_84_18980" x1="62.4938" y1="8.49675" x2="1" y2="8.49675" gradientUnits="userSpaceOnUse">
<stop stop-color="#00FFFF"/>
<stop offset="0.521875" stop-color="#00FFFF"/>
<stop offset="1" stop-color="#00FFFF"/>
</linearGradient>
</defs>
</svg>
