<svg width="1458" height="498" viewBox="0 0 1458 498" fill="none" xmlns="http://www.w3.org/2000/svg">
<path d="M1350 0C1349.45 0 1349 0.447715 1349 1C1349 1.55228 1349.45 2 1350 2V0ZM48.7071 490.707C49.0976 490.317 49.0976 489.683 48.7071 489.293L42.3431 482.929C41.9526 482.538 41.3195 482.538 40.9289 482.929C40.5384 483.319 40.5384 483.953 40.9289 484.343L46.5858 490L40.9289 495.657C40.5384 496.047 40.5384 496.681 40.9289 497.071C41.3195 497.462 41.9526 497.462 42.3431 497.071L48.7071 490.707ZM729 293C729.552 293 730 292.552 730 292C730 291.448 729.552 291 729 291V293ZM753 291C752.448 291 752 291.448 752 292C752 292.552 752.448 293 753 293V291ZM1350 2C1350.02 2 1350.05 2 1350.07 2C1350.1 2 1350.12 2 1350.14 2C1350.17 2 1350.19 2 1350.22 2C1350.24 2 1350.27 2 1350.29 2C1350.31 2 1350.34 2 1350.36 2C1350.39 2 1350.41 2 1350.44 2C1350.46 2 1350.49 2 1350.51 2C1350.54 2 1350.56 2 1350.59 2C1350.62 2 1350.64 2 1350.67 2C1350.69 2 1350.72 2 1350.74 2C1350.77 2 1350.8 2 1350.82 2C1350.85 2 1350.87 2 1350.9 2C1350.93 2 1350.95 2 1350.98 2C1351.01 2 1351.03 2 1351.06 2C1351.09 2 1351.11 2 1351.14 2C1351.17 2 1351.19 2 1351.22 2C1351.25 2 1351.28 2 1351.3 2C1351.33 2 1351.36 2 1351.38 2C1351.41 2 1351.44 2 1351.47 2C1351.5 2 1351.52 2 1351.55 2C1351.58 2 1351.61 2 1351.64 2C1351.66 2 1351.69 2 1351.72 2C1351.75 2 1351.78 2 1351.81 2C1351.83 2 1351.86 2 1351.89 2C1351.92 2 1351.95 2 1351.98 2C1352.01 2 1352.04 2 1352.06 2C1352.09 2 1352.12 2 1352.15 2C1352.18 2 1352.21 2 1352.24 2C1352.27 2 1352.3 2 1352.33 2C1352.36 2 1352.39 2 1352.42 2C1352.45 2 1352.48 2 1352.51 2C1352.54 2 1352.57 2 1352.6 2C1352.63 2 1352.66 2 1352.69 2C1352.72 2 1352.75 2 1352.78 2C1352.81 2 1352.84 2 1352.88 2C1352.91 2 1352.94 2 1352.97 2C1353 2 1353.03 2 1353.06 2C1353.09 2 1353.12 2 1353.16 2C1353.19 2 1353.22 2 1353.25 2C1353.28 2 1353.31 2 1353.35 2C1353.38 2 1353.41 2 1353.44 2C1353.47 2 1353.51 2 1353.54 2C1353.57 2 1353.6 2 1353.64 2C1353.67 2 1353.7 2 1353.73 2C1353.77 2 1353.8 2 1353.83 2C1353.86 2 1353.9 2 1353.93 2C1353.96 2 1354 2 1354.03 2C1354.06 2 1354.1 2 1354.13 2C1354.16 2 1354.2 2 1354.23 2C1354.26 2 1354.3 2 1354.33 2C1354.36 2 1354.4 2 1354.43 2C1354.47 2 1354.5 2 1354.53 2C1354.57 2 1354.6 2 1354.64 2C1354.67 2 1354.7 2 1354.74 2C1354.77 2 1354.81 2 1354.84 2C1354.88 2 1354.91 2 1354.95 2C1354.98 2 1355.02 2 1355.05 2C1355.09 2 1355.12 2 1355.16 2C1355.19 2 1355.23 2 1355.26 2C1355.3 2 1355.33 2 1355.37 2C1355.4 2 1355.44 2 1355.48 2C1355.51 2 1355.55 2 1355.58 2C1355.62 2 1355.66 2 1355.69 2C1355.73 2 1355.76 2 1355.8 2C1355.84 2 1355.87 2 1355.91 2C1355.95 2 1355.98 2 1356.02 2C1356.06 2 1356.09 2 1356.13 2C1356.17 2 1356.2 2 1356.24 2C1356.28 2 1356.31 2 1356.35 2C1356.39 2 1356.42 2 1356.46 2C1356.5 2 1356.54 2 1356.57 2C1356.61 2 1356.65 2 1356.69 2C1356.72 2 1356.76 2 1356.8 2C1356.84 2 1356.88 2 1356.91 2C1356.95 2 1356.99 2 1357.03 2C1357.07 2 1357.1 2 1357.14 2C1357.18 2 1357.22 2 1357.26 2C1357.3 2 1357.33 2 1357.37 2C1357.41 2 1357.45 2 1357.49 2C1357.53 2 1357.57 2 1357.61 2C1357.65 2 1357.68 2 1357.72 2C1357.76 2 1357.8 2 1357.84 2C1357.88 2 1357.92 2 1357.96 2C1358 2 1358.04 2 1358.08 2C1358.12 2 1358.16 2 1358.2 2C1358.24 2 1358.28 2 1358.32 2C1358.36 2 1358.4 2 1358.44 2C1358.48 2 1358.52 2 1358.56 2C1358.6 2 1358.64 2 1358.68 2C1358.72 2 1358.76 2 1358.8 2C1358.84 2 1358.88 2 1358.92 2C1358.96 2 1359 2 1359.05 2C1359.09 2 1359.13 2 1359.17 2C1359.21 2 1359.25 2 1359.29 2C1359.33 2 1359.37 2 1359.42 2C1359.46 2 1359.5 2 1359.54 2C1359.58 2 1359.62 2 1359.67 2C1359.71 2 1359.75 2 1359.79 2C1359.83 2 1359.87 2 1359.92 2C1359.96 2 1360 2 1360.04 2C1360.09 2 1360.13 2 1360.17 2C1360.21 2 1360.25 2 1360.3 2C1360.34 2 1360.38 2 1360.43 2C1360.47 2 1360.51 2 1360.55 2C1360.6 2 1360.64 2 1360.68 2C1360.72 2 1360.77 2 1360.81 2C1360.85 2 1360.9 2 1360.94 2C1360.98 2 1361.03 2 1361.07 2C1361.11 2 1361.16 2 1361.2 2C1361.24 2 1361.29 2 1361.33 2C1361.38 2 1361.42 2 1361.46 2C1361.51 2 1361.55 2 1361.59 2C1361.64 2 1361.68 2 1361.73 2C1361.77 2 1361.82 2 1361.86 2C1361.9 2 1361.95 2 1361.99 2C1362.04 2 1362.08 2 1362.13 2C1362.17 2 1362.22 2 1362.26 2C1362.3 2 1362.35 2 1362.39 2C1362.44 2 1362.48 2 1362.53 2C1362.57 2 1362.62 2 1362.66 2C1362.71 2 1362.76 2 1362.8 2C1362.85 2 1362.89 2 1362.94 2C1362.98 2 1363.03 2 1363.07 2C1363.12 2 1363.16 2 1363.21 2C1363.26 2 1363.3 2 1363.35 2C1363.39 2 1363.44 2 1363.48 2C1363.53 2 1363.58 2 1363.62 2C1363.67 2 1363.72 2 1363.76 2C1363.81 2 1363.85 2 1363.9 2C1363.95 2 1363.99 2 1364.04 2C1364.09 2 1364.13 2 1364.18 2C1364.23 2 1364.27 2 1364.32 2C1364.37 2 1364.41 2 1364.46 2C1364.51 2 1364.55 2 1364.6 2C1364.65 2 1364.7 2 1364.74 2C1364.79 2 1364.84 2 1364.89 2C1364.93 2 1364.98 2 1365.03 2C1365.07 2 1365.12 2 1365.17 2C1365.22 2 1365.27 2 1365.31 2C1365.36 2 1365.41 2 1365.46 2C1365.5 2 1365.55 2 1365.6 2C1365.65 2 1365.7 2 1365.74 2C1365.79 2 1365.84 2 1365.89 2C1365.94 2 1365.99 2 1366.03 2C1366.08 2 1366.13 2 1366.18 2C1366.23 2 1366.28 2 1366.32 2C1366.37 2 1366.42 2 1366.47 2C1366.52 2 1366.57 2 1366.62 2C1366.67 2 1366.72 2 1366.76 2C1366.81 2 1366.86 2 1366.91 2C1366.96 2 1367.01 2 1367.06 2C1367.11 2 1367.16 2 1367.21 2C1367.26 2 1367.31 2 1367.36 2C1367.4 2 1367.45 2 1367.5 2C1367.55 2 1367.6 2 1367.65 2C1367.7 2 1367.75 2 1367.8 2C1367.85 2 1367.9 2 1367.95 2C1368 2 1368.05 2 1368.1 2C1368.15 2 1368.2 2 1368.25 2C1368.3 2 1368.35 2 1368.4 2C1368.45 2 1368.5 2 1368.55 2C1368.6 2 1368.66 2 1368.71 2C1368.76 2 1368.81 2 1368.86 2C1368.91 2 1368.96 2 1369.01 2C1369.06 2 1369.11 2 1369.16 2C1369.21 2 1369.26 2 1369.32 2C1369.37 2 1369.42 2 1369.47 2C1369.52 2 1369.57 2 1369.62 2C1369.67 2 1369.72 2 1369.78 2C1369.83 2 1369.88 2 1369.93 2C1369.98 2 1370.03 2 1370.08 2C1370.14 2 1370.19 2 1370.24 2C1370.29 2 1370.34 2 1370.4 2C1370.45 2 1370.5 2 1370.55 2C1370.6 2 1370.65 2 1370.71 2C1370.76 2 1370.81 2 1370.86 2C1370.91 2 1370.97 2 1371.02 2C1371.07 2 1371.12 2 1371.18 2C1371.23 2 1371.28 2 1371.33 2C1371.39 2 1371.44 2 1371.49 2C1371.54 2 1371.6 2 1371.65 2C1371.7 2 1371.75 2 1371.81 2C1371.86 2 1371.91 2 1371.97 2C1372.02 2 1372.07 2 1372.12 2C1372.18 2 1372.23 2 1372.28 2C1372.34 2 1372.39 2 1372.44 2C1372.5 2 1372.55 2 1372.6 2C1372.66 2 1372.71 2 1372.76 2C1372.82 2 1372.87 2 1372.92 2C1372.98 2 1373.03 2 1373.08 2C1373.14 2 1373.19 2 1373.24 2C1373.3 2 1373.35 2 1373.4 2C1373.46 2 1373.51 2 1373.57 2C1373.62 2 1373.67 2 1373.73 2C1373.78 2 1373.84 2 1373.89 2C1373.94 2 1374 2 1374.05 2C1374.11 2 1374.16 2 1374.22 2C1374.27 2 1374.32 2 1374.38 2C1374.43 2 1374.49 2 1374.54 2C1374.6 2 1374.65 2 1374.7 2C1374.76 2 1374.81 2 1374.87 2C1374.92 2 1374.98 2 1375.03 2C1375.09 2 1375.14 2 1375.2 2C1375.25 2 1375.31 2 1375.36 2C1375.42 2 1375.47 2 1375.53 2C1375.58 2 1375.64 2 1375.69 2C1375.75 2 1375.8 2 1375.86 2C1375.91 2 1375.97 2 1376.02 2C1376.08 2 1376.13 2 1376.19 2C1376.24 2 1376.3 2 1376.35 2C1376.41 2 1376.47 2 1376.52 2C1376.58 2 1376.63 2 1376.69 2C1376.74 2 1376.8 2 1376.85 2C1376.91 2 1376.97 2 1377.02 2C1377.08 2 1377.13 2 1377.19 2C1377.24 2 1377.3 2 1377.36 2C1377.41 2 1377.47 2 1377.52 2C1377.58 2 1377.64 2 1377.69 2C1377.75 2 1377.81 2 1377.86 2C1377.92 2 1377.97 2 1378.03 2C1378.09 2 1378.14 2 1378.2 2C1378.26 2 1378.31 2 1378.37 2C1378.42 2 1378.48 2 1378.54 2C1378.59 2 1378.65 2 1378.71 2C1378.76 2 1378.82 2 1378.88 2C1378.93 2 1378.99 2 1379.05 2C1379.1 2 1379.16 2 1379.22 2C1379.27 2 1379.33 2 1379.39 2C1379.44 2 1379.5 2 1379.56 2C1379.62 2 1379.67 2 1379.73 2C1379.79 2 1379.84 2 1379.9 2C1379.96 2 1380.02 2 1380.07 2C1380.13 2 1380.19 2 1380.24 2C1380.3 2 1380.36 2 1380.42 2C1380.47 2 1380.53 2 1380.59 2C1380.65 2 1380.7 2 1380.76 2C1380.82 2 1380.88 2 1380.93 2C1380.99 2 1381.05 2 1381.11 2C1381.16 2 1381.22 2 1381.28 2C1381.34 2 1381.39 2 1381.45 2C1381.51 2 1381.57 2 1381.63 2C1381.68 2 1381.74 2 1381.8 2C1381.86 2 1381.91 2 1381.97 2C1382.03 2 1382.09 2 1382.15 2C1382.2 2 1382.26 2 1382.32 2C1382.38 2 1382.44 2 1382.5 2C1382.55 2 1382.61 2 1382.67 2C1382.73 2 1382.79 2 1382.84 2C1382.9 2 1382.96 2 1383.02 2C1383.08 2 1383.14 2 1383.19 2C1383.25 2 1383.31 2 1383.37 2C1383.43 2 1383.49 2 1383.55 2C1383.6 2 1383.66 2 1383.72 2C1383.78 2 1383.84 2 1383.9 2C1383.96 2 1384.01 2 1384.07 2C1384.13 2 1384.19 2 1384.25 2C1384.31 2 1384.37 2 1384.43 2C1384.48 2 1384.54 2 1384.6 2C1384.66 2 1384.72 2 1384.78 2C1384.84 2 1384.9 2 1384.96 2C1385.01 2 1385.07 2 1385.13 2C1385.19 2 1385.25 2 1385.31 2C1385.37 2 1385.43 2 1385.49 2C1385.55 2 1385.61 2 1385.67 2C1385.72 2 1385.78 2 1385.84 2C1385.9 2 1385.96 2 1386.02 2C1386.08 2 1386.14 2 1386.2 2C1386.26 2 1386.32 2 1386.38 2C1386.44 2 1386.5 2 1386.56 2C1386.61 2 1386.67 2 1386.73 2C1386.79 2 1386.85 2 1386.91 2C1386.97 2 1387.03 2 1387.09 2C1387.15 2 1387.21 2 1387.27 2C1387.33 2 1387.39 2 1387.45 2C1387.51 2 1387.57 2 1387.63 2C1387.69 2 1387.75 2 1387.81 2C1387.87 2 1387.93 2 1387.99 2C1388.05 2 1388.11 2 1388.17 2C1388.23 2 1388.29 2 1388.35 2C1388.41 2 1388.47 2 1388.53 2C1388.59 2 1388.65 2 1388.71 2C1388.77 2 1388.83 2 1388.89 2C1388.95 2 1389.01 2 1389.07 2C1389.13 2 1389.19 2 1389.25 2C1389.31 2 1389.37 2 1389.43 2C1389.49 2 1389.55 2 1389.61 2C1389.67 2 1389.73 2 1389.79 2C1389.85 2 1389.91 2 1389.97 2C1390.03 2 1390.09 2 1390.15 2C1390.21 2 1390.27 2 1390.33 2C1390.39 2 1390.45 2 1390.51 2C1390.58 2 1390.64 2 1390.7 2C1390.76 2 1390.82 2 1390.88 2C1390.94 2 1391 2 1391.06 2C1391.12 2 1391.18 2 1391.24 2C1391.3 2 1391.36 2 1391.42 2C1391.48 2 1391.54 2 1391.6 2C1391.67 2 1391.73 2 1391.79 2C1391.85 2 1391.91 2 1391.97 2C1392.03 2 1392.09 2 1392.15 2C1392.21 2 1392.27 2 1392.33 2C1392.39 2 1392.46 2 1392.52 2C1392.58 2 1392.64 2 1392.7 2C1392.76 2 1392.82 2 1392.88 2C1392.94 2 1393 2 1393.06 2C1393.12 2 1393.19 2 1393.25 2C1393.31 2 1393.37 2 1393.43 2C1393.49 2 1393.55 2 1393.61 2C1393.67 2 1393.73 2 1393.8 2C1393.86 2 1393.92 2 1393.98 2C1394.04 2 1394.1 2 1394.16 2C1394.22 2 1394.28 2 1394.34 2C1394.41 2 1394.47 2 1394.53 2C1394.59 2 1394.65 2 1394.71 2C1394.77 2 1394.83 2 1394.9 2C1394.96 2 1395.02 2 1395.08 2C1395.14 2 1395.2 2 1395.26 2C1395.32 2 1395.38 2 1395.45 2C1395.51 2 1395.57 2 1395.63 2C1395.69 2 1395.75 2 1395.81 2C1395.87 2 1395.94 2 1396 2C1396.06 2 1396.12 2 1396.18 2C1396.24 2 1396.3 2 1396.37 2C1396.43 2 1396.49 2 1396.55 2C1396.61 2 1396.67 2 1396.73 2C1396.79 2 1396.86 2 1396.92 2C1396.98 2 1397.04 2 1397.1 2C1397.16 2 1397.22 2 1397.29 2C1397.35 2 1397.41 2 1397.47 2C1397.53 2 1397.59 2 1397.65 2C1397.72 2 1397.78 2 1397.84 2C1397.9 2 1397.96 2 1398.02 2C1398.08 2 1398.15 2 1398.21 2C1398.27 2 1398.33 2 1398.39 2C1398.45 2 1398.51 2 1398.58 2C1398.64 2 1398.7 2 1398.76 2C1398.82 2 1398.88 2 1398.95 2C1399.01 2 1399.07 2 1399.13 2C1399.19 2 1399.25 2 1399.31 2C1399.38 2 1399.44 2 1399.5 2C1399.56 2 1399.62 2 1399.68 2C1399.75 2 1399.81 2 1399.87 2C1399.93 2 1399.99 2 1400.05 2C1400.11 2 1400.18 2 1400.24 2C1400.3 2 1400.36 2 1400.42 2C1400.48 2 1400.55 2 1400.61 2C1400.67 2 1400.73 2 1400.79 2C1400.85 2 1400.92 2 1400.98 2C1401.04 2 1401.1 2 1401.16 2C1401.22 2 1401.28 2 1401.35 2C1401.41 2 1401.47 2 1401.53 2C1401.59 2 1401.65 2 1401.72 2C1401.78 2 1401.84 2 1401.9 2C1401.96 2 1402.02 2 1402.09 2C1402.15 2 1402.21 2 1402.27 2C1402.33 2 1402.39 2 1402.45 2C1402.52 2 1402.58 2 1402.64 2C1402.7 2 1402.76 2 1402.82 2C1402.89 2 1402.95 2 1403.01 2C1403.07 2 1403.13 2 1403.19 2C1403.26 2 1403.32 2 1403.38 2C1403.44 2 1403.5 2 1403.56 2C1403.62 2 1403.69 2 1403.75 2C1403.81 2 1403.87 2 1403.93 2C1403.99 2 1404.06 2 1404.12 2C1404.18 2 1404.24 2 1404.3 2C1404.36 2 1404.42 2 1404.49 2C1404.55 2 1404.61 2 1404.67 2C1404.73 2 1404.79 2 1404.85 2C1404.92 2 1404.98 2 1405.04 2C1405.1 2 1405.16 2 1405.22 2C1405.29 2 1405.35 2 1405.41 2C1405.47 2 1405.53 2 1405.59 2C1405.65 2 1405.72 2 1405.78 2C1405.84 2 1405.9 2 1405.96 2C1406.02 2 1406.08 2 1406.15 2C1406.21 2 1406.27 2 1406.33 2C1406.39 2 1406.45 2 1406.51 2C1406.58 2 1406.64 2 1406.7 2C1406.76 2 1406.82 2 1406.88 2C1406.94 2 1407 2 1407.07 2C1407.13 2 1407.19 2 1407.25 2C1407.31 2 1407.37 2 1407.43 2C1407.5 2 1407.56 2 1407.62 2C1407.68 2 1407.74 2 1407.8 2C1407.86 2 1407.92 2 1407.99 2C1408.05 2 1408.11 2 1408.17 2C1408.23 2 1408.29 2 1408.35 2C1408.41 2 1408.47 2 1408.54 2C1408.6 2 1408.66 2 1408.72 2C1408.78 2 1408.84 2 1408.9 2C1408.96 2 1409.02 2 1409.09 2C1409.15 2 1409.21 2 1409.27 2C1409.33 2 1409.39 2 1409.45 2C1409.51 2 1409.57 2 1409.64 2C1409.7 2 1409.76 2 1409.82 2C1409.88 2 1409.94 2 1410 2C1410.06 2 1410.12 2 1410.18 2C1410.25 2 1410.31 2 1410.37 2C1410.43 2 1410.49 2 1410.55 2C1410.61 2 1410.67 2 1410.73 2C1410.79 2 1410.85 2 1410.91 2C1410.98 2 1411.04 2 1411.1 2C1411.16 2 1411.22 2 1411.28 2C1411.34 2 1411.4 2 1411.46 2C1411.52 2 1411.58 2 1411.64 2C1411.7 2 1411.77 2 1411.83 2C1411.89 2 1411.95 2 1412.01 2C1412.07 2 1412.13 2 1412.19 2C1412.25 2 1412.31 2 1412.37 2C1412.43 2 1412.49 2 1412.55 2C1412.61 2 1412.67 2 1412.73 2C1412.8 2 1412.86 2 1412.92 2C1412.98 2 1413.04 2 1413.1 2C1413.16 2 1413.22 2 1413.28 2C1413.34 2 1413.4 2 1413.46 2C1413.52 2 1413.58 2 1413.64 2C1413.7 2 1413.76 2 1413.82 2C1413.88 2 1413.94 2 1414 2C1414.06 2 1414.12 2 1414.18 2C1414.24 2 1414.3 2 1414.36 2C1414.42 2 1414.48 2 1414.54 2C1414.6 2 1414.66 2 1414.72 2C1414.78 2 1414.84 2 1414.9 2C1414.96 2 1415.02 2 1415.08 2C1415.14 2 1415.2 2 1415.26 2C1415.32 2 1415.38 2 1415.44 2C1415.5 2 1415.56 2 1415.62 2C1415.68 2 1415.74 2 1415.8 2C1415.86 2 1415.92 2 1415.98 2C1416.04 2 1416.1 2 1416.16 2C1416.22 2 1416.28 2 1416.34 2C1416.4 2 1416.46 2 1416.52 2C1416.58 2 1416.64 2 1416.7 2C1416.76 2 1416.82 2 1416.87 2C1416.93 2 1416.99 2 1417.05 2C1417.11 2 1417.17 2 1417.23 2C1417.29 2 1417.35 2 1417.41 2C1417.47 2 1417.53 2 1417.59 2C1417.65 2 1417.71 2 1417.77 2C1417.82 2 1417.88 2 1417.94 2C1418 2 1418.06 2 1418.12 2C1418.18 2 1418.24 2 1418.3 2C1418.36 2 1418.42 2 1418.47 2C1418.53 2 1418.59 2 1418.65 2C1418.71 2 1418.77 2 1418.83 2C1418.89 2 1418.95 2 1419 2C1419.06 2 1419.12 2 1419.18 2C1419.24 2 1419.3 2 1419.36 2C1419.42 2 1419.47 2 1419.53 2C1419.59 2 1419.65 2 1419.71 2C1419.77 2 1419.83 2 1419.88 2C1419.94 2 1420 2 1420.06 2C1420.12 2 1420.18 2 1420.24 2C1420.29 2 1420.35 2 1420.41 2C1420.47 2 1420.53 2 1420.59 2C1420.64 2 1420.7 2 1420.76 2C1420.82 2 1420.88 2 1420.93 2C1420.99 2 1421.05 2 1421.11 2C1421.17 2 1421.23 2 1421.28 2C1421.34 2 1421.4 2 1421.46 2C1421.52 2 1421.57 2 1421.63 2C1421.69 2 1421.75 2 1421.8 2C1421.86 2 1421.92 2 1421.98 2C1422.04 2 1422.09 2 1422.15 2C1422.21 2 1422.27 2 1422.32 2C1422.38 2 1422.44 2 1422.5 2C1422.55 2 1422.61 2 1422.67 2C1422.73 2 1422.78 2 1422.84 2C1422.9 2 1422.96 2 1423.01 2C1423.07 2 1423.13 2 1423.19 2C1423.24 2 1423.3 2 1423.36 2C1423.41 2 1423.47 2 1423.53 2C1423.59 2 1423.64 2 1423.7 2C1423.76 2 1423.81 2 1423.87 2C1423.93 2 1423.98 2 1424.04 2C1424.1 2 1424.16 2 1424.21 2C1424.27 2 1424.33 2 1424.38 2C1424.44 2 1424.5 2 1424.55 2C1424.61 2 1424.67 2 1424.72 2C1424.78 2 1424.84 2 1424.89 2C1424.95 2 1425 2 1425.06 2C1425.12 2 1425.17 2 1425.23 2C1425.29 2 1425.34 2 1425.4 2C1425.46 2 1425.51 2 1425.57 2C1425.62 2 1425.68 2 1425.74 2C1425.79 2 1425.85 2 1425.9 2C1425.96 2 1426.02 2 1426.07 2C1426.13 2 1426.18 2 1426.24 2C1426.3 2 1426.35 2 1426.41 2C1426.46 2 1426.52 2 1426.57 2C1426.63 2 1426.69 2 1426.74 2C1426.8 2 1426.85 2 1426.91 2C1426.96 2 1427.02 2 1427.07 2C1427.13 2 1427.19 2 1427.24 2C1427.3 2 1427.35 2 1427.41 2C1427.46 2 1427.52 2 1427.57 2C1427.63 2 1427.68 2 1427.74 2C1427.79 2 1427.85 2 1427.9 2C1427.96 2 1428.01 2 1428.07 2C1428.12 2 1428.18 2 1428.23 2C1428.29 2 1428.34 2 1428.4 2C1428.45 2 1428.51 2 1428.56 2C1428.61 2 1428.67 2 1428.72 2C1428.78 2 1428.83 2 1428.89 2C1428.94 2 1429 2 1429.05 2C1429.1 2 1429.16 2 1429.21 2C1429.27 2 1429.32 2 1429.38 2C1429.43 2 1429.48 2 1429.54 2C1429.59 2 1429.65 2 1429.7 2C1429.75 2 1429.81 2 1429.86 2C1429.92 2 1429.97 2 1430.02 2V0C1429.97 0 1429.92 0 1429.86 0C1429.81 0 1429.75 0 1429.7 0C1429.65 0 1429.59 0 1429.54 0C1429.48 0 1429.43 0 1429.38 0C1429.32 0 1429.27 0 1429.21 0C1429.16 0 1429.1 0 1429.05 0C1429 0 1428.94 0 1428.89 0C1428.83 0 1428.78 0 1428.72 0C1428.67 0 1428.61 0 1428.56 0C1428.51 0 1428.45 0 1428.4 0C1428.34 0 1428.29 0 1428.23 0C1428.18 0 1428.12 0 1428.07 0C1428.01 0 1427.96 0 1427.9 0C1427.85 0 1427.79 0 1427.74 0C1427.68 0 1427.63 0 1427.57 0C1427.52 0 1427.46 0 1427.41 0C1427.35 0 1427.3 0 1427.24 0C1427.19 0 1427.13 0 1427.07 0C1427.02 0 1426.96 0 1426.91 0C1426.85 0 1426.8 0 1426.74 0C1426.69 0 1426.63 0 1426.57 0C1426.52 0 1426.46 0 1426.41 0C1426.35 0 1426.3 0 1426.24 0C1426.18 0 1426.13 0 1426.07 0C1426.02 0 1425.96 0 1425.9 0C1425.85 0 1425.79 0 1425.74 0C1425.68 0 1425.62 0 1425.57 0C1425.51 0 1425.46 0 1425.4 0C1425.34 0 1425.29 0 1425.23 0C1425.17 0 1425.12 0 1425.06 0C1425 0 1424.95 0 1424.89 0C1424.84 0 1424.78 0 1424.72 0C1424.67 0 1424.61 0 1424.55 0C1424.5 0 1424.44 0 1424.38 0C1424.33 0 1424.27 0 1424.21 0C1424.16 0 1424.1 0 1424.04 0C1423.98 0 1423.93 0 1423.87 0C1423.81 0 1423.76 0 1423.7 0C1423.64 0 1423.59 0 1423.53 0C1423.47 0 1423.41 0 1423.36 0C1423.3 0 1423.24 0 1423.19 0C1423.13 0 1423.07 0 1423.01 0C1422.96 0 1422.9 0 1422.84 0C1422.78 0 1422.73 0 1422.67 0C1422.61 0 1422.55 0 1422.5 0C1422.44 0 1422.38 0 1422.32 0C1422.27 0 1422.21 0 1422.15 0C1422.09 0 1422.04 0 1421.98 0C1421.92 0 1421.86 0 1421.8 0C1421.75 0 1421.69 0 1421.63 0C1421.57 0 1421.52 0 1421.46 0C1421.4 0 1421.34 0 1421.28 0C1421.23 0 1421.17 0 1421.11 0C1421.05 0 1420.99 0 1420.93 0C1420.88 0 1420.82 0 1420.76 0C1420.7 0 1420.64 0 1420.59 0C1420.53 0 1420.47 0 1420.41 0C1420.35 0 1420.29 0 1420.24 0C1420.18 0 1420.12 0 1420.06 0C1420 0 1419.94 0 1419.88 0C1419.83 0 1419.77 0 1419.71 0C1419.65 0 1419.59 0 1419.53 0C1419.47 0 1419.42 0 1419.36 0C1419.3 0 1419.24 0 1419.18 0C1419.12 0 1419.06 0 1419 0C1418.95 0 1418.89 0 1418.83 0C1418.77 0 1418.71 0 1418.65 0C1418.59 0 1418.53 0 1418.47 0C1418.42 0 1418.36 0 1418.3 0C1418.24 0 1418.18 0 1418.12 0C1418.06 0 1418 0 1417.94 0C1417.88 0 1417.82 0 1417.77 0C1417.71 0 1417.65 0 1417.59 0C1417.53 0 1417.47 0 1417.41 0C1417.35 0 1417.29 0 1417.23 0C1417.17 0 1417.11 0 1417.05 0C1416.99 0 1416.93 0 1416.87 0C1416.82 0 1416.76 0 1416.7 0C1416.64 0 1416.58 0 1416.52 0C1416.46 0 1416.4 0 1416.34 0C1416.28 0 1416.22 0 1416.16 0C1416.1 0 1416.04 0 1415.98 0C1415.92 0 1415.86 0 1415.8 0C1415.74 0 1415.68 0 1415.62 0C1415.56 0 1415.5 0 1415.44 0C1415.38 0 1415.32 0 1415.26 0C1415.2 0 1415.14 0 1415.08 0C1415.02 0 1414.96 0 1414.9 0C1414.84 0 1414.78 0 1414.72 0C1414.66 0 1414.6 0 1414.54 0C1414.48 0 1414.42 0 1414.36 0C1414.3 0 1414.24 0 1414.18 0C1414.12 0 1414.06 0 1414 0C1413.94 0 1413.88 0 1413.82 0C1413.76 0 1413.7 0 1413.64 0C1413.58 0 1413.52 0 1413.46 0C1413.4 0 1413.34 0 1413.28 0C1413.22 0 1413.16 0 1413.1 0C1413.04 0 1412.98 0 1412.92 0C1412.86 0 1412.8 0 1412.73 0C1412.67 0 1412.61 0 1412.55 0C1412.49 0 1412.43 0 1412.37 0C1412.31 0 1412.25 0 1412.19 0C1412.13 0 1412.07 0 1412.01 0C1411.95 0 1411.89 0 1411.83 0C1411.77 0 1411.7 0 1411.64 0C1411.58 0 1411.52 0 1411.46 0C1411.4 0 1411.34 0 1411.28 0C1411.22 0 1411.16 0 1411.1 0C1411.04 0 1410.98 0 1410.91 0C1410.85 0 1410.79 0 1410.73 0C1410.67 0 1410.61 0 1410.55 0C1410.49 0 1410.43 0 1410.37 0C1410.31 0 1410.25 0 1410.18 0C1410.12 0 1410.06 0 1410 0C1409.94 0 1409.88 0 1409.82 0C1409.76 0 1409.7 0 1409.64 0C1409.57 0 1409.51 0 1409.45 0C1409.39 0 1409.33 0 1409.27 0C1409.21 0 1409.15 0 1409.09 0C1409.02 0 1408.96 0 1408.9 0C1408.84 0 1408.78 0 1408.72 0C1408.66 0 1408.6 0 1408.54 0C1408.47 0 1408.41 0 1408.35 0C1408.29 0 1408.23 0 1408.17 0C1408.11 0 1408.05 0 1407.99 0C1407.92 0 1407.86 0 1407.8 0C1407.74 0 1407.68 0 1407.62 0C1407.56 0 1407.5 0 1407.43 0C1407.37 0 1407.31 0 1407.25 0C1407.19 0 1407.13 0 1407.07 0C1407 0 1406.94 0 1406.88 0C1406.82 0 1406.76 0 1406.7 0C1406.64 0 1406.58 0 1406.51 0C1406.45 0 1406.39 0 1406.33 0C1406.27 0 1406.21 0 1406.15 0C1406.08 0 1406.02 0 1405.96 0C1405.9 0 1405.84 0 1405.78 0C1405.72 0 1405.65 0 1405.59 0C1405.53 0 1405.47 0 1405.41 0C1405.35 0 1405.29 0 1405.22 0C1405.16 0 1405.1 0 1405.04 0C1404.98 0 1404.92 0 1404.85 0C1404.79 0 1404.73 0 1404.67 0C1404.61 0 1404.55 0 1404.49 0C1404.42 0 1404.36 0 1404.3 0C1404.24 0 1404.18 0 1404.12 0C1404.06 0 1403.99 0 1403.93 0C1403.87 0 1403.81 0 1403.75 0C1403.69 0 1403.62 0 1403.56 0C1403.5 0 1403.44 0 1403.38 0C1403.32 0 1403.26 0 1403.19 0C1403.13 0 1403.07 0 1403.01 0C1402.95 0 1402.89 0 1402.82 0C1402.76 0 1402.7 0 1402.64 0C1402.58 0 1402.52 0 1402.45 0C1402.39 0 1402.33 0 1402.27 0C1402.21 0 1402.15 0 1402.09 0C1402.02 0 1401.96 0 1401.9 0C1401.84 0 1401.78 0 1401.72 0C1401.65 0 1401.59 0 1401.53 0C1401.47 0 1401.41 0 1401.35 0C1401.28 0 1401.22 0 1401.16 0C1401.1 0 1401.04 0 1400.98 0C1400.92 0 1400.85 0 1400.79 0C1400.73 0 1400.67 0 1400.61 0C1400.55 0 1400.48 0 1400.42 0C1400.36 0 1400.3 0 1400.24 0C1400.18 0 1400.11 0 1400.05 0C1399.99 0 1399.93 0 1399.87 0C1399.81 0 1399.75 0 1399.68 0C1399.62 0 1399.56 0 1399.5 0C1399.44 0 1399.38 0 1399.31 0C1399.25 0 1399.19 0 1399.13 0C1399.07 0 1399.01 0 1398.95 0C1398.88 0 1398.82 0 1398.76 0C1398.7 0 1398.64 0 1398.58 0C1398.51 0 1398.45 0 1398.39 0C1398.33 0 1398.27 0 1398.21 0C1398.15 0 1398.08 0 1398.02 0C1397.96 0 1397.9 0 1397.84 0C1397.78 0 1397.72 0 1397.65 0C1397.59 0 1397.53 0 1397.47 0C1397.41 0 1397.35 0 1397.29 0C1397.22 0 1397.16 0 1397.1 0C1397.04 0 1396.98 0 1396.92 0C1396.86 0 1396.79 0 1396.73 0C1396.67 0 1396.61 0 1396.55 0C1396.49 0 1396.43 0 1396.37 0C1396.3 0 1396.24 0 1396.18 0C1396.12 0 1396.06 0 1396 0C1395.94 0 1395.87 0 1395.81 0C1395.75 0 1395.69 0 1395.63 0C1395.57 0 1395.51 0 1395.45 0C1395.38 0 1395.32 0 1395.26 0C1395.2 0 1395.14 0 1395.08 0C1395.02 0 1394.96 0 1394.9 0C1394.83 0 1394.77 0 1394.71 0C1394.65 0 1394.59 0 1394.53 0C1394.47 0 1394.41 0 1394.34 0C1394.28 0 1394.22 0 1394.16 0C1394.1 0 1394.04 0 1393.98 0C1393.92 0 1393.86 0 1393.8 0C1393.73 0 1393.67 0 1393.61 0C1393.55 0 1393.49 0 1393.43 0C1393.37 0 1393.31 0 1393.25 0C1393.19 0 1393.12 0 1393.06 0C1393 0 1392.94 0 1392.88 0C1392.82 0 1392.76 0 1392.7 0C1392.64 0 1392.58 0 1392.52 0C1392.46 0 1392.39 0 1392.33 0C1392.27 0 1392.21 0 1392.15 0C1392.09 0 1392.03 0 1391.97 0C1391.91 0 1391.85 0 1391.79 0C1391.73 0 1391.67 0 1391.6 0C1391.54 0 1391.48 0 1391.42 0C1391.36 0 1391.3 0 1391.24 0C1391.18 0 1391.12 0 1391.06 0C1391 0 1390.94 0 1390.88 0C1390.82 0 1390.76 0 1390.7 0C1390.64 0 1390.58 0 1390.51 0C1390.45 0 1390.39 0 1390.33 0C1390.27 0 1390.21 0 1390.15 0C1390.09 0 1390.03 0 1389.97 0C1389.91 0 1389.85 0 1389.79 0C1389.73 0 1389.67 0 1389.61 0C1389.55 0 1389.49 0 1389.43 0C1389.37 0 1389.31 0 1389.25 0C1389.19 0 1389.13 0 1389.07 0C1389.01 0 1388.95 0 1388.89 0C1388.83 0 1388.77 0 1388.71 0C1388.65 0 1388.59 0 1388.53 0C1388.47 0 1388.41 0 1388.35 0C1388.29 0 1388.23 0 1388.17 0C1388.11 0 1388.05 0 1387.99 0C1387.93 0 1387.87 0 1387.81 0C1387.75 0 1387.69 0 1387.63 0C1387.57 0 1387.51 0 1387.45 0C1387.39 0 1387.33 0 1387.27 0C1387.21 0 1387.15 0 1387.09 0C1387.03 0 1386.97 0 1386.91 0C1386.85 0 1386.79 0 1386.73 0C1386.67 0 1386.61 0 1386.56 0C1386.5 0 1386.44 0 1386.38 0C1386.32 0 1386.26 0 1386.2 0C1386.14 0 1386.08 0 1386.02 0C1385.96 0 1385.9 0 1385.84 0C1385.78 0 1385.72 0 1385.67 0C1385.61 0 1385.55 0 1385.49 0C1385.43 0 1385.37 0 1385.31 0C1385.25 0 1385.19 0 1385.13 0C1385.07 0 1385.01 0 1384.96 0C1384.9 0 1384.84 0 1384.78 0C1384.72 0 1384.66 0 1384.6 0C1384.54 0 1384.48 0 1384.43 0C1384.37 0 1384.31 0 1384.25 0C1384.19 0 1384.13 0 1384.07 0C1384.01 0 1383.96 0 1383.9 0C1383.84 0 1383.78 0 1383.72 0C1383.66 0 1383.6 0 1383.55 0C1383.49 0 1383.43 0 1383.37 0C1383.31 0 1383.25 0 1383.19 0C1383.14 0 1383.08 0 1383.02 0C1382.96 0 1382.9 0 1382.84 0C1382.79 0 1382.73 0 1382.67 0C1382.61 0 1382.55 0 1382.5 0C1382.44 0 1382.38 0 1382.32 0C1382.26 0 1382.2 0 1382.15 0C1382.09 0 1382.03 0 1381.97 0C1381.91 0 1381.86 0 1381.8 0C1381.74 0 1381.68 0 1381.63 0C1381.57 0 1381.51 0 1381.45 0C1381.39 0 1381.34 0 1381.28 0C1381.22 0 1381.16 0 1381.11 0C1381.05 0 1380.99 0 1380.93 0C1380.88 0 1380.82 0 1380.76 0C1380.7 0 1380.65 0 1380.59 0C1380.53 0 1380.47 0 1380.42 0C1380.36 0 1380.3 0 1380.24 0C1380.19 0 1380.13 0 1380.07 0C1380.02 0 1379.96 0 1379.9 0C1379.84 0 1379.79 0 1379.73 0C1379.67 0 1379.62 0 1379.56 0C1379.5 0 1379.44 0 1379.39 0C1379.33 0 1379.27 0 1379.22 0C1379.16 0 1379.1 0 1379.05 0C1378.99 0 1378.93 0 1378.88 0C1378.82 0 1378.76 0 1378.71 0C1378.65 0 1378.59 0 1378.54 0C1378.48 0 1378.42 0 1378.37 0C1378.31 0 1378.26 0 1378.2 0C1378.14 0 1378.09 0 1378.03 0C1377.97 0 1377.92 0 1377.86 0C1377.81 0 1377.75 0 1377.69 0C1377.64 0 1377.58 0 1377.52 0C1377.47 0 1377.41 0 1377.36 0C1377.3 0 1377.24 0 1377.19 0C1377.13 0 1377.08 0 1377.02 0C1376.97 0 1376.91 0 1376.85 0C1376.8 0 1376.74 0 1376.69 0C1376.63 0 1376.58 0 1376.52 0C1376.47 0 1376.41 0 1376.35 0C1376.3 0 1376.24 0 1376.19 0C1376.13 0 1376.08 0 1376.02 0C1375.97 0 1375.91 0 1375.86 0C1375.8 0 1375.75 0 1375.69 0C1375.64 0 1375.58 0 1375.53 0C1375.47 0 1375.42 0 1375.36 0C1375.31 0 1375.25 0 1375.2 0C1375.14 0 1375.09 0 1375.03 0C1374.98 0 1374.92 0 1374.87 0C1374.81 0 1374.76 0 1374.7 0C1374.65 0 1374.6 0 1374.54 0C1374.49 0 1374.43 0 1374.38 0C1374.32 0 1374.27 0 1374.22 0C1374.16 0 1374.11 0 1374.05 0C1374 0 1373.94 0 1373.89 0C1373.84 0 1373.78 0 1373.73 0C1373.67 0 1373.62 0 1373.57 0C1373.51 0 1373.46 0 1373.4 0C1373.35 0 1373.3 0 1373.24 0C1373.19 0 1373.14 0 1373.08 0C1373.03 0 1372.98 0 1372.92 0C1372.87 0 1372.82 0 1372.76 0C1372.71 0 1372.66 0 1372.6 0C1372.55 0 1372.5 0 1372.44 0C1372.39 0 1372.34 0 1372.28 0C1372.23 0 1372.18 0 1372.12 0C1372.07 0 1372.02 0 1371.97 0C1371.91 0 1371.86 0 1371.81 0C1371.75 0 1371.7 0 1371.65 0C1371.6 0 1371.54 0 1371.49 0C1371.44 0 1371.39 0 1371.33 0C1371.28 0 1371.23 0 1371.18 0C1371.12 0 1371.07 0 1371.02 0C1370.97 0 1370.91 0 1370.86 0C1370.81 0 1370.76 0 1370.71 0C1370.65 0 1370.6 0 1370.55 0C1370.5 0 1370.45 0 1370.4 0C1370.34 0 1370.29 0 1370.24 0C1370.19 0 1370.14 0 1370.08 0C1370.03 0 1369.98 0 1369.93 0C1369.88 0 1369.83 0 1369.78 0C1369.72 0 1369.67 0 1369.62 0C1369.57 0 1369.52 0 1369.47 0C1369.42 0 1369.37 0 1369.32 0C1369.26 0 1369.21 0 1369.16 0C1369.11 0 1369.06 0 1369.01 0C1368.96 0 1368.91 0 1368.86 0C1368.81 0 1368.76 0 1368.71 0C1368.66 0 1368.6 0 1368.55 0C1368.5 0 1368.45 0 1368.4 0C1368.35 0 1368.3 0 1368.25 0C1368.2 0 1368.15 0 1368.1 0C1368.05 0 1368 0 1367.95 0C1367.9 0 1367.85 0 1367.8 0C1367.75 0 1367.7 0 1367.65 0C1367.6 0 1367.55 0 1367.5 0C1367.45 0 1367.4 0 1367.36 0C1367.31 0 1367.26 0 1367.21 0C1367.16 0 1367.11 0 1367.06 0C1367.01 0 1366.96 0 1366.91 0C1366.86 0 1366.81 0 1366.76 0C1366.72 0 1366.67 0 1366.62 0C1366.57 0 1366.52 0 1366.47 0C1366.42 0 1366.37 0 1366.32 0C1366.28 0 1366.23 0 1366.18 0C1366.13 0 1366.08 0 1366.03 0C1365.99 0 1365.94 0 1365.89 0C1365.84 0 1365.79 0 1365.74 0C1365.7 0 1365.65 0 1365.6 0C1365.55 0 1365.5 0 1365.46 0C1365.41 0 1365.36 0 1365.31 0C1365.27 0 1365.22 0 1365.17 0C1365.12 0 1365.07 0 1365.03 0C1364.98 0 1364.93 0 1364.89 0C1364.84 0 1364.79 0 1364.74 0C1364.7 0 1364.65 0 1364.6 0C1364.55 0 1364.51 0 1364.46 0C1364.41 0 1364.37 0 1364.32 0C1364.27 0 1364.23 0 1364.18 0C1364.13 0 1364.09 0 1364.04 0C1363.99 0 1363.95 0 1363.9 0C1363.85 0 1363.81 0 1363.76 0C1363.72 0 1363.67 0 1363.62 0C1363.58 0 1363.53 0 1363.48 0C1363.44 0 1363.39 0 1363.35 0C1363.3 0 1363.26 0 1363.21 0C1363.16 0 1363.12 0 1363.07 0C1363.03 0 1362.98 0 1362.94 0C1362.89 0 1362.85 0 1362.8 0C1362.76 0 1362.71 0 1362.66 0C1362.62 0 1362.57 0 1362.53 0C1362.48 0 1362.44 0 1362.39 0C1362.35 0 1362.3 0 1362.26 0C1362.22 0 1362.17 0 1362.13 0C1362.08 0 1362.04 0 1361.99 0C1361.95 0 1361.9 0 1361.86 0C1361.82 0 1361.77 0 1361.73 0C1361.68 0 1361.64 0 1361.59 0C1361.55 0 1361.51 0 1361.46 0C1361.42 0 1361.38 0 1361.33 0C1361.29 0 1361.24 0 1361.2 0C1361.16 0 1361.11 0 1361.07 0C1361.03 0 1360.98 0 1360.94 0C1360.9 0 1360.85 0 1360.81 0C1360.77 0 1360.72 0 1360.68 0C1360.64 0 1360.6 0 1360.55 0C1360.51 0 1360.47 0 1360.43 0C1360.38 0 1360.34 0 1360.3 0C1360.25 0 1360.21 0 1360.17 0C1360.13 0 1360.09 0 1360.04 0C1360 0 1359.96 0 1359.92 0C1359.87 0 1359.83 0 1359.79 0C1359.75 0 1359.71 0 1359.67 0C1359.62 0 1359.58 0 1359.54 0C1359.5 0 1359.46 0 1359.42 0C1359.37 0 1359.33 0 1359.29 0C1359.25 0 1359.21 0 1359.17 0C1359.13 0 1359.09 0 1359.05 0C1359 0 1358.96 0 1358.92 0C1358.88 0 1358.84 0 1358.8 0C1358.76 0 1358.72 0 1358.68 0C1358.64 0 1358.6 0 1358.56 0C1358.52 0 1358.48 0 1358.44 0C1358.4 0 1358.36 0 1358.32 0C1358.28 0 1358.24 0 1358.2 0C1358.16 0 1358.12 0 1358.08 0C1358.04 0 1358 0 1357.96 0C1357.92 0 1357.88 0 1357.84 0C1357.8 0 1357.76 0 1357.72 0C1357.68 0 1357.65 0 1357.61 0C1357.57 0 1357.53 0 1357.49 0C1357.45 0 1357.41 0 1357.37 0C1357.33 0 1357.3 0 1357.26 0C1357.22 0 1357.18 0 1357.14 0C1357.1 0 1357.07 0 1357.03 0C1356.99 0 1356.95 0 1356.91 0C1356.88 0 1356.84 0 1356.8 0C1356.76 0 1356.72 0 1356.69 0C1356.65 0 1356.61 0 1356.57 0C1356.54 0 1356.5 0 1356.46 0C1356.42 0 1356.39 0 1356.35 0C1356.31 0 1356.28 0 1356.24 0C1356.2 0 1356.17 0 1356.13 0C1356.09 0 1356.06 0 1356.02 0C1355.98 0 1355.95 0 1355.91 0C1355.87 0 1355.84 0 1355.8 0C1355.76 0 1355.73 0 1355.69 0C1355.66 0 1355.62 0 1355.58 0C1355.55 0 1355.51 0 1355.48 0C1355.44 0 1355.4 0 1355.37 0C1355.33 0 1355.3 0 1355.26 0C1355.23 0 1355.19 0 1355.16 0C1355.12 0 1355.09 0 1355.05 0C1355.02 0 1354.98 0 1354.95 0C1354.91 0 1354.88 0 1354.84 0C1354.81 0 1354.77 0 1354.74 0C1354.7 0 1354.67 0 1354.64 0C1354.6 0 1354.57 0 1354.53 0C1354.5 0 1354.47 0 1354.43 0C1354.4 0 1354.36 0 1354.33 0C1354.3 0 1354.26 0 1354.23 0C1354.2 0 1354.16 0 1354.13 0C1354.1 0 1354.06 0 1354.03 0C1354 0 1353.96 0 1353.93 0C1353.9 0 1353.86 0 1353.83 0C1353.8 0 1353.77 0 1353.73 0C1353.7 0 1353.67 0 1353.64 0C1353.6 0 1353.57 0 1353.54 0C1353.51 0 1353.47 0 1353.44 0C1353.41 0 1353.38 0 1353.35 0C1353.31 0 1353.28 0 1353.25 0C1353.22 0 1353.19 0 1353.16 0C1353.12 0 1353.09 0 1353.06 0C1353.03 0 1353 0 1352.97 0C1352.94 0 1352.91 0 1352.88 0C1352.84 0 1352.81 0 1352.78 0C1352.75 0 1352.72 0 1352.69 0C1352.66 0 1352.63 0 1352.6 0C1352.57 0 1352.54 0 1352.51 0C1352.48 0 1352.45 0 1352.42 0C1352.39 0 1352.36 0 1352.33 0C1352.3 0 1352.27 0 1352.24 0C1352.21 0 1352.18 0 1352.15 0C1352.12 0 1352.09 0 1352.06 0C1352.04 0 1352.01 0 1351.98 0C1351.95 0 1351.92 0 1351.89 0C1351.86 0 1351.83 0 1351.81 0C1351.78 0 1351.75 0 1351.72 0C1351.69 0 1351.66 0 1351.64 0C1351.61 0 1351.58 0 1351.55 0C1351.52 0 1351.5 0 1351.47 0C1351.44 0 1351.41 0 1351.38 0C1351.36 0 1351.33 0 1351.3 0C1351.28 0 1351.25 0 1351.22 0C1351.19 0 1351.17 0 1351.14 0C1351.11 0 1351.09 0 1351.06 0C1351.03 0 1351.01 0 1350.98 0C1350.95 0 1350.93 0 1350.9 0C1350.87 0 1350.85 0 1350.82 0C1350.8 0 1350.77 0 1350.74 0C1350.72 0 1350.69 0 1350.67 0C1350.64 0 1350.62 0 1350.59 0C1350.56 0 1350.54 0 1350.51 0C1350.49 0 1350.46 0 1350.44 0C1350.41 0 1350.39 0 1350.36 0C1350.34 0 1350.31 0 1350.29 0C1350.27 0 1350.24 0 1350.22 0C1350.19 0 1350.17 0 1350.14 0C1350.12 0 1350.1 0 1350.07 0C1350.05 0 1350.02 0 1350 0V2ZM1456 28V265H1458V28H1456ZM0 319V463H2V319H0ZM28 491H48V489H28V491ZM729 291H28V293H729V291ZM1430 291H753V293H1430V291ZM0 463C0 478.464 12.536 491 28 491V489C13.6406 489 2 477.359 2 463H0ZM2 319C2 304.641 13.6406 293 28 293V291C12.536 291 0 303.536 0 319H2ZM1456 265C1456 279.359 1444.36 291 1430 291V293C1445.46 293 1458 280.464 1458 265H1456ZM1430.02 2C1444.38 2 1456 13.6395 1456 28H1458C1458 12.5371 1445.49 0 1430.02 0V2Z" fill="url(#paint0_linear_84_18979)"/>
<defs>
<linearGradient id="paint0_linear_84_18979" x1="1436.21" y1="1.51944" x2="1386.31" y2="1.51944" gradientUnits="userSpaceOnUse">
<stop stop-color="#00FFFF"/>
<stop offset="0.521875" stop-color="#00FFFF"/>
<stop offset="1" stop-color="#00FFFF"/>
</linearGradient>
</defs>
</svg>
